<?xml version="1.0" encoding="UTF-8" standalone="no"?><svg xmlns="http://www.w3.org/2000/svg" xmlns:xlink="http://www.w3.org/1999/xlink" contentStyleType="text/css" height="2207px" preserveAspectRatio="none" style="width:1199px;height:2207px;background:#FFFFFF;" version="1.1" viewBox="0 0 1199 2207" width="1199px" zoomAndPan="magnify"><defs/><g><rect fill="#FFFFFF" height="2006.8281" style="stroke:#181818;stroke-width:1.0;" width="10" x="48.5" y="95.8906"/><rect fill="#FFFFFF" height="1985.6953" style="stroke:#181818;stroke-width:1.0;" width="10" x="187.5" y="117.0234"/><rect fill="#FFFFFF" height="1956.5625" style="stroke:#181818;stroke-width:1.0;" width="10" x="380" y="146.1563"/><rect fill="#FFFFFF" height="2007.8281" style="stroke:#181818;stroke-width:1.0;" width="10" x="526.5" y="95.8906"/><rect fill="#FFFFFF" height="2007.8281" style="stroke:#181818;stroke-width:1.0;" width="10" x="708.5" y="95.8906"/><rect fill="#FFFFFF" height="1956.5625" style="stroke:#181818;stroke-width:1.0;" width="10" x="1042.5" y="146.1563"/><rect fill="#FFFFFF" height="2007.8281" style="stroke:#181818;stroke-width:1.0;" width="10" x="1138.5" y="95.8906"/><rect fill="none" height="1905.4297" style="stroke:#000000;stroke-width:1.5;" width="920" x="273" y="190.2891"/><rect fill="none" height="483.3906" style="stroke:#000000;stroke-width:1.5;" width="696" x="487" y="214.4219"/><rect fill="none" height="337.7266" style="stroke:#000000;stroke-width:1.5;" width="696" x="487" y="711.8125"/><rect fill="none" height="484.5234" style="stroke:#000000;stroke-width:1.5;" width="696" x="487" y="1063.5391"/><rect fill="none" height="497.5234" style="stroke:#000000;stroke-width:1.5;" width="427" x="756" y="1562.0625"/><line style="stroke:#181818;stroke-width:0.5;stroke-dasharray:5.0,5.0;" x1="53" x2="53" y1="85.8906" y2="2112.7188"/><line style="stroke:#181818;stroke-width:0.5;stroke-dasharray:5.0,5.0;" x1="192" x2="192" y1="85.8906" y2="2112.7188"/><line style="stroke:#181818;stroke-width:0.5;stroke-dasharray:5.0,5.0;" x1="385" x2="385" y1="85.8906" y2="2112.7188"/><line style="stroke:#181818;stroke-width:0.5;stroke-dasharray:5.0,5.0;" x1="531" x2="531" y1="85.8906" y2="2112.7188"/><line style="stroke:#181818;stroke-width:0.5;stroke-dasharray:5.0,5.0;" x1="618" x2="618" y1="85.8906" y2="2112.7188"/><line style="stroke:#181818;stroke-width:0.5;stroke-dasharray:5.0,5.0;" x1="713" x2="713" y1="85.8906" y2="2112.7188"/><line style="stroke:#181818;stroke-width:0.5;stroke-dasharray:5.0,5.0;" x1="816" x2="816" y1="85.8906" y2="2112.7188"/><line style="stroke:#181818;stroke-width:0.5;stroke-dasharray:5.0,5.0;" x1="970" x2="970" y1="85.8906" y2="2112.7188"/><line style="stroke:#181818;stroke-width:0.5;stroke-dasharray:5.0,5.0;" x1="1047" x2="1047" y1="85.8906" y2="2112.7188"/><line style="stroke:#181818;stroke-width:0.5;stroke-dasharray:5.0,5.0;" x1="1143" x2="1143" y1="85.8906" y2="2112.7188"/><rect fill="#E2E2F0" height="46.5938" rx="2.5" ry="2.5" style="stroke:#181818;stroke-width:0.5;" width="97" x="5" y="38.2969"/><text fill="#000000" font-family="sans-serif" font-size="14" lengthAdjust="spacing" textLength="83" x="12" y="58.292">Sequencing</text><text fill="#000000" font-family="sans-serif" font-size="14" lengthAdjust="spacing" textLength="59" x="24" y="74.5889">pipeline</text><rect fill="#E2E2F0" height="46.5938" rx="2.5" ry="2.5" style="stroke:#181818;stroke-width:0.5;" width="97" x="5" y="2111.7188"/><text fill="#000000" font-family="sans-serif" font-size="14" lengthAdjust="spacing" textLength="83" x="12" y="2131.7139">Sequencing</text><text fill="#000000" font-family="sans-serif" font-size="14" lengthAdjust="spacing" textLength="59" x="24" y="2148.0107">pipeline</text><text fill="#000000" font-family="sans-serif" font-size="14" lengthAdjust="spacing" textLength="155" x="112" y="82.5889">seq_to_irods_archiver</text><ellipse cx="192.5" cy="53.5938" fill="#E2E2F0" rx="12" ry="12" style="stroke:#181818;stroke-width:0.5;"/><polygon fill="#181818" points="188.5,41.5938,194.5,36.5938,192.5,41.5938,194.5,46.5938,188.5,41.5938" style="stroke:#181818;stroke-width:1.0;"/><text fill="#000000" font-family="sans-serif" font-size="14" lengthAdjust="spacing" textLength="155" x="112" y="2124.7139">seq_to_irods_archiver</text><ellipse cx="192.5" cy="2144.0156" fill="#E2E2F0" rx="12" ry="12" style="stroke:#181818;stroke-width:0.5;"/><polygon fill="#181818" points="188.5,2132.0156,194.5,2127.0156,192.5,2132.0156,194.5,2137.0156,188.5,2132.0156" style="stroke:#181818;stroke-width:1.0;"/><text fill="#000000" font-family="sans-serif" font-size="14" lengthAdjust="spacing" textLength="198" x="283" y="82.5889">npg_publish_illumina_run.pl</text><ellipse cx="385" cy="53.5938" fill="#E2E2F0" rx="12" ry="12" style="stroke:#181818;stroke-width:0.5;"/><polygon fill="#181818" points="381,41.5938,387,36.5938,385,41.5938,387,46.5938,381,41.5938" style="stroke:#181818;stroke-width:1.0;"/><text fill="#000000" font-family="sans-serif" font-size="14" lengthAdjust="spacing" textLength="198" x="283" y="2124.7139">npg_publish_illumina_run.pl</text><ellipse cx="385" cy="2144.0156" fill="#E2E2F0" rx="12" ry="12" style="stroke:#181818;stroke-width:0.5;"/><polygon fill="#181818" points="381,2132.0156,387,2127.0156,385,2132.0156,387,2137.0156,381,2132.0156" style="stroke:#181818;stroke-width:1.0;"/><rect fill="#E2E2F0" height="46.5938" rx="2.5" ry="2.5" style="stroke:#181818;stroke-width:0.5;" width="69" x="497" y="38.2969"/><text fill="#000000" font-family="sans-serif" font-size="14" lengthAdjust="spacing" textLength="55" x="504" y="58.292">Staging</text><text fill="#000000" font-family="sans-serif" font-size="14" lengthAdjust="spacing" textLength="52" x="505.5" y="74.5889">volume</text><rect fill="#E2E2F0" height="46.5938" rx="2.5" ry="2.5" style="stroke:#181818;stroke-width:0.5;" width="69" x="497" y="2111.7188"/><text fill="#000000" font-family="sans-serif" font-size="14" lengthAdjust="spacing" textLength="55" x="504" y="2131.7139">Staging</text><text fill="#000000" font-family="sans-serif" font-size="14" lengthAdjust="spacing" textLength="52" x="505.5" y="2148.0107">volume</text><text fill="#000000" font-family="sans-serif" font-size="14" lengthAdjust="spacing" textLength="52" x="589.5" y="49.9951">Perl ML</text><text fill="#000000" font-family="sans-serif" font-size="14" lengthAdjust="spacing" textLength="79" x="576" y="66.292">Warehouse</text><text fill="#000000" font-family="sans-serif" font-size="14" lengthAdjust="spacing" textLength="23" x="604" y="82.5889">API</text><path d="M598,9 L598,33 M598,21 L615,21 " fill="none" style="stroke:#181818;stroke-width:0.5;"/><ellipse cx="627" cy="21" fill="#E2E2F0" rx="12" ry="12" style="stroke:#181818;stroke-width:0.5;"/><text fill="#000000" font-family="sans-serif" font-size="14" lengthAdjust="spacing" textLength="52" x="589.5" y="2124.7139">Perl ML</text><text fill="#000000" font-family="sans-serif" font-size="14" lengthAdjust="spacing" textLength="79" x="576" y="2141.0107">Warehouse</text><text fill="#000000" font-family="sans-serif" font-size="14" lengthAdjust="spacing" textLength="23" x="604" y="2157.3076">API</text><path d="M598,2164.6094 L598,2188.6094 M598,2176.6094 L615,2176.6094 " fill="none" style="stroke:#181818;stroke-width:0.5;"/><ellipse cx="627" cy="2176.6094" fill="#E2E2F0" rx="12" ry="12" style="stroke:#181818;stroke-width:0.5;"/><text fill="#000000" font-family="sans-serif" font-size="14" lengthAdjust="spacing" textLength="20" x="700.5" y="66.292">ML</text><text fill="#000000" font-family="sans-serif" font-size="14" lengthAdjust="spacing" textLength="79" x="671" y="82.5889">Warehouse</text><path d="M695.5,17.2969 C695.5,7.2969 713.5,7.2969 713.5,7.2969 C713.5,7.2969 731.5,7.2969 731.5,17.2969 L731.5,43.2969 C731.5,53.2969 713.5,53.2969 713.5,53.2969 C713.5,53.2969 695.5,53.2969 695.5,43.2969 L695.5,17.2969 " fill="#E2E2F0" style="stroke:#181818;stroke-width:1.5;"/><path d="M695.5,17.2969 C695.5,27.2969 713.5,27.2969 713.5,27.2969 C713.5,27.2969 731.5,27.2969 731.5,17.2969 " fill="none" style="stroke:#181818;stroke-width:1.5;"/><text fill="#000000" font-family="sans-serif" font-size="14" lengthAdjust="spacing" textLength="20" x="700.5" y="2124.7139">ML</text><text fill="#000000" font-family="sans-serif" font-size="14" lengthAdjust="spacing" textLength="79" x="671" y="2141.0107">Warehouse</text><path d="M695.5,2154.3125 C695.5,2144.3125 713.5,2144.3125 713.5,2144.3125 C713.5,2144.3125 731.5,2144.3125 731.5,2154.3125 L731.5,2180.3125 C731.5,2190.3125 713.5,2190.3125 713.5,2190.3125 C713.5,2190.3125 695.5,2190.3125 695.5,2180.3125 L695.5,2154.3125 " fill="#E2E2F0" style="stroke:#181818;stroke-width:1.5;"/><path d="M695.5,2154.3125 C695.5,2164.3125 713.5,2164.3125 713.5,2164.3125 C713.5,2164.3125 731.5,2164.3125 731.5,2154.3125 " fill="none" style="stroke:#181818;stroke-width:1.5;"/><text fill="#000000" font-family="sans-serif" font-size="14" lengthAdjust="spacing" textLength="95" x="766" y="66.292">NPG business</text><text fill="#000000" font-family="sans-serif" font-size="14" lengthAdjust="spacing" textLength="23" x="802" y="82.5889">API</text><path d="M796,25.2969 L796,49.2969 M796,37.2969 L813,37.2969 " fill="none" style="stroke:#181818;stroke-width:0.5;"/><ellipse cx="825" cy="37.2969" fill="#E2E2F0" rx="12" ry="12" style="stroke:#181818;stroke-width:0.5;"/><text fill="#000000" font-family="sans-serif" font-size="14" lengthAdjust="spacing" textLength="95" x="766" y="2124.7139">NPG business</text><text fill="#000000" font-family="sans-serif" font-size="14" lengthAdjust="spacing" textLength="23" x="802" y="2141.0107">API</text><path d="M796,2148.3125 L796,2172.3125 M796,2160.3125 L813,2160.3125 " fill="none" style="stroke:#181818;stroke-width:0.5;"/><ellipse cx="825" cy="2160.3125" fill="#E2E2F0" rx="12" ry="12" style="stroke:#181818;stroke-width:0.5;"/><text fill="#000000" font-family="sans-serif" font-size="14" lengthAdjust="spacing" textLength="79" x="928" y="66.292">NPG iRODS</text><text fill="#000000" font-family="sans-serif" font-size="14" lengthAdjust="spacing" textLength="23" x="956" y="82.5889">API</text><path d="M950,25.2969 L950,49.2969 M950,37.2969 L967,37.2969 " fill="none" style="stroke:#181818;stroke-width:0.5;"/><ellipse cx="979" cy="37.2969" fill="#E2E2F0" rx="12" ry="12" style="stroke:#181818;stroke-width:0.5;"/><text fill="#000000" font-family="sans-serif" font-size="14" lengthAdjust="spacing" textLength="79" x="928" y="2124.7139">NPG iRODS</text><text fill="#000000" font-family="sans-serif" font-size="14" lengthAdjust="spacing" textLength="23" x="956" y="2141.0107">API</text><path d="M950,2148.3125 L950,2172.3125 M950,2160.3125 L967,2160.3125 " fill="none" style="stroke:#181818;stroke-width:0.5;"/><ellipse cx="979" cy="2160.3125" fill="#E2E2F0" rx="12" ry="12" style="stroke:#181818;stroke-width:0.5;"/><text fill="#000000" font-family="sans-serif" font-size="14" lengthAdjust="spacing" textLength="43" x="1023" y="82.5889">baton</text><path d="M1027,41.5938 L1027,65.5938 M1027,53.5938 L1044,53.5938 " fill="none" style="stroke:#181818;stroke-width:0.5;"/><ellipse cx="1056" cy="53.5938" fill="#E2E2F0" rx="12" ry="12" style="stroke:#181818;stroke-width:0.5;"/><text fill="#000000" font-family="sans-serif" font-size="14" lengthAdjust="spacing" textLength="43" x="1023" y="2124.7139">baton</text><path d="M1027,2132.0156 L1027,2156.0156 M1027,2144.0156 L1044,2144.0156 " fill="none" style="stroke:#181818;stroke-width:0.5;"/><ellipse cx="1056" cy="2144.0156" fill="#E2E2F0" rx="12" ry="12" style="stroke:#181818;stroke-width:0.5;"/><rect fill="#E2E2F0" height="30.2969" rx="2.5" ry="2.5" style="stroke:#181818;stroke-width:0.5;" width="59" x="1114" y="54.5938"/><text fill="#000000" font-family="sans-serif" font-size="14" lengthAdjust="spacing" textLength="45" x="1121" y="74.5889">iRODS</text><rect fill="#E2E2F0" height="30.2969" rx="2.5" ry="2.5" style="stroke:#181818;stroke-width:0.5;" width="59" x="1114" y="2111.7188"/><text fill="#000000" font-family="sans-serif" font-size="14" lengthAdjust="spacing" textLength="45" x="1121" y="2131.7139">iRODS</text><rect fill="#FFFFFF" height="2006.8281" style="stroke:#181818;stroke-width:1.0;" width="10" x="48.5" y="95.8906"/><rect fill="#FFFFFF" height="1985.6953" style="stroke:#181818;stroke-width:1.0;" width="10" x="187.5" y="117.0234"/><rect fill="#FFFFFF" height="1956.5625" style="stroke:#181818;stroke-width:1.0;" width="10" x="380" y="146.1563"/><rect fill="#FFFFFF" height="2007.8281" style="stroke:#181818;stroke-width:1.0;" width="10" x="526.5" y="95.8906"/><rect fill="#FFFFFF" height="2007.8281" style="stroke:#181818;stroke-width:1.0;" width="10" x="708.5" y="95.8906"/><rect fill="#FFFFFF" height="1956.5625" style="stroke:#181818;stroke-width:1.0;" width="10" x="1042.5" y="146.1563"/><rect fill="#FFFFFF" height="2007.8281" style="stroke:#181818;stroke-width:1.0;" width="10" x="1138.5" y="95.8906"/><polygon fill="#181818" points="175.5,113.0234,185.5,117.0234,175.5,121.0234,179.5,117.0234" style="stroke:#181818;stroke-width:1.0;"/><line style="stroke:#181818;stroke-width:1.0;" x1="58.5" x2="181.5" y1="117.0234" y2="117.0234"/><text fill="#000000" font-family="sans-serif" font-size="13" font-weight="bold" lengthAdjust="spacing" textLength="9" x="65.5" y="111.9575">1</text><text fill="#000000" font-family="sans-serif" font-size="13" lengthAdjust="spacing" textLength="4" x="78.5" y="111.9575"> </text><polygon fill="#181818" points="368,142.1563,378,146.1563,368,150.1563,372,146.1563" style="stroke:#181818;stroke-width:1.0;"/><line style="stroke:#181818;stroke-width:1.0;" x1="197.5" x2="374" y1="146.1563" y2="146.1563"/><text fill="#000000" font-family="sans-serif" font-size="13" font-weight="bold" lengthAdjust="spacing" textLength="9" x="204.5" y="141.0903">2</text><text fill="#000000" font-family="sans-serif" font-size="13" lengthAdjust="spacing" textLength="4" x="217.5" y="141.0903"> </text><polygon fill="#181818" points="958.5,171.2891,968.5,175.2891,958.5,179.2891,962.5,175.2891" style="stroke:#181818;stroke-width:1.0;"/><line style="stroke:#181818;stroke-width:1.0;" x1="390" x2="964.5" y1="175.2891" y2="175.2891"/><text fill="#000000" font-family="sans-serif" font-size="13" font-weight="bold" lengthAdjust="spacing" textLength="8" x="397" y="170.2231">3</text><text fill="#000000" font-family="sans-serif" font-size="13" lengthAdjust="spacing" textLength="4" x="409" y="170.2231"> </text><path d="M273,190.2891 L351,190.2891 L351,197.4219 L341,207.4219 L273,207.4219 L273,190.2891 " fill="#EEEEEE" style="stroke:#000000;stroke-width:1.5;"/><rect fill="none" height="1905.4297" style="stroke:#000000;stroke-width:1.5;" width="920" x="273" y="190.2891"/><text fill="#000000" font-family="sans-serif" font-size="13" font-weight="bold" lengthAdjust="spacing" textLength="33" x="288" y="203.356">loop</text><text fill="#000000" font-family="sans-serif" font-size="11" font-weight="bold" lengthAdjust="spacing" textLength="75" x="366" y="202.4995">[data files]</text><path d="M487,214.4219 L609,214.4219 L609,221.5547 L599,231.5547 L487,231.5547 L487,214.4219 " fill="#EEEEEE" style="stroke:#000000;stroke-width:1.5;"/><rect fill="none" height="483.3906" style="stroke:#000000;stroke-width:1.5;" width="696" x="487" y="214.4219"/><text fill="#000000" font-family="sans-serif" font-size="13" font-weight="bold" lengthAdjust="spacing" textLength="77" x="502" y="227.4888">Copy data</text><polygon fill="#181818" points="958.5,248.6875,968.5,252.6875,958.5,256.6875,962.5,252.6875" style="stroke:#181818;stroke-width:1.0;"/><line style="stroke:#181818;stroke-width:1.0;" x1="816.5" x2="964.5" y1="252.6875" y2="252.6875"/><text fill="#000000" font-family="sans-serif" font-size="13" font-weight="bold" lengthAdjust="spacing" textLength="9" x="823.5" y="247.6216">4</text><text fill="#000000" font-family="sans-serif" font-size="13" lengthAdjust="spacing" textLength="4" x="836.5" y="247.6216"> </text><polygon fill="#181818" points="1030.5,277.8203,1040.5,281.8203,1030.5,285.8203,1034.5,281.8203" style="stroke:#181818;stroke-width:1.0;"/><line style="stroke:#181818;stroke-width:1.0;" x1="970.5" x2="1036.5" y1="281.8203" y2="281.8203"/><text fill="#000000" font-family="sans-serif" font-size="13" font-weight="bold" lengthAdjust="spacing" textLength="9" x="977.5" y="276.7544">5</text><text fill="#000000" font-family="sans-serif" font-size="13" lengthAdjust="spacing" textLength="4" x="990.5" y="276.7544"> </text><polygon fill="#181818" points="547.5,306.9531,537.5,310.9531,547.5,314.9531,543.5,310.9531" style="stroke:#181818;stroke-width:1.0;"/><line style="stroke:#181818;stroke-width:1.0;" x1="541.5" x2="1041.5" y1="310.9531" y2="310.9531"/><text fill="#000000" font-family="sans-serif" font-size="13" font-weight="bold" lengthAdjust="spacing" textLength="9" x="553.5" y="305.8872">6</text><text fill="#000000" font-family="sans-serif" font-size="13" lengthAdjust="spacing" textLength="4" x="566.5" y="305.8872"> </text><polygon fill="#181818" points="1030.5,336.0859,1040.5,340.0859,1030.5,344.0859,1034.5,340.0859" style="stroke:#181818;stroke-width:1.0;"/><line style="stroke:#181818;stroke-width:1.0;stroke-dasharray:2.0,2.0;" x1="536.5" x2="1036.5" y1="340.0859" y2="340.0859"/><text fill="#000000" font-family="sans-serif" font-size="13" font-weight="bold" lengthAdjust="spacing" textLength="9" x="543.5" y="335.02">7</text><text fill="#000000" font-family="sans-serif" font-size="13" lengthAdjust="spacing" textLength="61" x="556.5" y="335.02">Data files</text><polygon fill="#181818" points="1126.5,380.3516,1136.5,384.3516,1126.5,388.3516,1130.5,384.3516" style="stroke:#181818;stroke-width:1.0;"/><line style="stroke:#181818;stroke-width:1.0;" x1="1052.5" x2="1132.5" y1="384.3516" y2="384.3516"/><text fill="#000000" font-family="sans-serif" font-size="13" font-weight="bold" lengthAdjust="spacing" textLength="9" x="1059.5" y="371.7192">8</text><text fill="#000000" font-family="sans-serif" font-size="13" lengthAdjust="spacing" textLength="40" x="1072.5" y="364.1528">iRODS</text><text fill="#000000" font-family="sans-serif" font-size="13" lengthAdjust="spacing" textLength="20" x="1072.5" y="379.2856">API</text><polygon fill="#181818" points="1063.5,409.4844,1053.5,413.4844,1063.5,417.4844,1059.5,413.4844" style="stroke:#181818;stroke-width:1.0;"/><line style="stroke:#181818;stroke-width:1.0;stroke-dasharray:2.0,2.0;" x1="1057.5" x2="1137.5" y1="413.4844" y2="413.4844"/><text fill="#000000" font-family="sans-serif" font-size="13" font-weight="bold" lengthAdjust="spacing" textLength="9" x="1069.5" y="408.4185">9</text><text fill="#000000" font-family="sans-serif" font-size="13" lengthAdjust="spacing" textLength="4" x="1082.5" y="408.4185"> </text><polygon fill="#181818" points="981.5,438.6172,971.5,442.6172,981.5,446.6172,977.5,442.6172" style="stroke:#181818;stroke-width:1.0;"/><line style="stroke:#181818;stroke-width:1.0;stroke-dasharray:2.0,2.0;" x1="975.5" x2="1041.5" y1="442.6172" y2="442.6172"/><text fill="#000000" font-family="sans-serif" font-size="13" font-weight="bold" lengthAdjust="spacing" textLength="19" x="987.5" y="437.5513">10</text><text fill="#000000" font-family="sans-serif" font-size="13" lengthAdjust="spacing" textLength="4" x="1010.5" y="437.5513"> </text><line style="stroke:#181818;stroke-width:1.0;stroke-dasharray:2.0,2.0;" x1="816.5" x2="858.5" y1="471.75" y2="471.75"/><line style="stroke:#181818;stroke-width:1.0;stroke-dasharray:2.0,2.0;" x1="858.5" x2="858.5" y1="471.75" y2="484.75"/><line style="stroke:#181818;stroke-width:1.0;stroke-dasharray:2.0,2.0;" x1="817.5" x2="858.5" y1="484.75" y2="484.75"/><polygon fill="#181818" points="827.5,480.75,817.5,484.75,827.5,488.75,823.5,484.75" style="stroke:#181818;stroke-width:1.0;"/><text fill="#000000" font-family="sans-serif" font-size="13" font-weight="bold" lengthAdjust="spacing" textLength="18" x="823.5" y="466.6841">11</text><text fill="#000000" font-family="sans-serif" font-size="13" lengthAdjust="spacing" textLength="97" x="845.5" y="466.6841">Build metadata</text><polygon fill="#181818" points="958.5,525.0156,968.5,529.0156,958.5,533.0156,962.5,529.0156" style="stroke:#181818;stroke-width:1.0;"/><line style="stroke:#181818;stroke-width:1.0;" x1="816.5" x2="964.5" y1="529.0156" y2="529.0156"/><text fill="#000000" font-family="sans-serif" font-size="13" font-weight="bold" lengthAdjust="spacing" textLength="18" x="823.5" y="516.3833">12</text><text fill="#000000" font-family="sans-serif" font-size="13" lengthAdjust="spacing" textLength="21" x="845.5" y="508.8169">Set</text><text fill="#000000" font-family="sans-serif" font-size="13" lengthAdjust="spacing" textLength="63" x="845.5" y="523.9497">metadata</text><polygon fill="#181818" points="1030.5,554.1484,1040.5,558.1484,1030.5,562.1484,1034.5,558.1484" style="stroke:#181818;stroke-width:1.0;"/><line style="stroke:#181818;stroke-width:1.0;" x1="970.5" x2="1036.5" y1="558.1484" y2="558.1484"/><text fill="#000000" font-family="sans-serif" font-size="13" font-weight="bold" lengthAdjust="spacing" textLength="17" x="977.5" y="553.0825">13</text><text fill="#000000" font-family="sans-serif" font-size="13" lengthAdjust="spacing" textLength="4" x="998.5" y="553.0825"> </text><polygon fill="#181818" points="1126.5,598.4141,1136.5,602.4141,1126.5,606.4141,1130.5,602.4141" style="stroke:#181818;stroke-width:1.0;"/><line style="stroke:#181818;stroke-width:1.0;" x1="1052.5" x2="1132.5" y1="602.4141" y2="602.4141"/><text fill="#000000" font-family="sans-serif" font-size="13" font-weight="bold" lengthAdjust="spacing" textLength="18" x="1059.5" y="589.7817">14</text><text fill="#000000" font-family="sans-serif" font-size="13" lengthAdjust="spacing" textLength="40" x="1081.5" y="582.2153">iRODS</text><text fill="#000000" font-family="sans-serif" font-size="13" lengthAdjust="spacing" textLength="20" x="1081.5" y="597.3481">API</text><polygon fill="#181818" points="1063.5,627.5469,1053.5,631.5469,1063.5,635.5469,1059.5,631.5469" style="stroke:#181818;stroke-width:1.0;"/><line style="stroke:#181818;stroke-width:1.0;stroke-dasharray:2.0,2.0;" x1="1057.5" x2="1137.5" y1="631.5469" y2="631.5469"/><text fill="#000000" font-family="sans-serif" font-size="13" font-weight="bold" lengthAdjust="spacing" textLength="18" x="1069.5" y="626.481">15</text><text fill="#000000" font-family="sans-serif" font-size="13" lengthAdjust="spacing" textLength="4" x="1091.5" y="626.481"> </text><polygon fill="#181818" points="981.5,656.6797,971.5,660.6797,981.5,664.6797,977.5,660.6797" style="stroke:#181818;stroke-width:1.0;"/><line style="stroke:#181818;stroke-width:1.0;stroke-dasharray:2.0,2.0;" x1="975.5" x2="1041.5" y1="660.6797" y2="660.6797"/><text fill="#000000" font-family="sans-serif" font-size="13" font-weight="bold" lengthAdjust="spacing" textLength="18" x="987.5" y="655.6138">16</text><text fill="#000000" font-family="sans-serif" font-size="13" lengthAdjust="spacing" textLength="4" x="1009.5" y="655.6138"> </text><polygon fill="#181818" points="827.5,685.8125,817.5,689.8125,827.5,693.8125,823.5,689.8125" style="stroke:#181818;stroke-width:1.0;"/><line style="stroke:#181818;stroke-width:1.0;stroke-dasharray:2.0,2.0;" x1="821.5" x2="969.5" y1="689.8125" y2="689.8125"/><text fill="#000000" font-family="sans-serif" font-size="13" font-weight="bold" lengthAdjust="spacing" textLength="18" x="833.5" y="684.7466">17</text><text fill="#000000" font-family="sans-serif" font-size="13" lengthAdjust="spacing" textLength="4" x="855.5" y="684.7466"> </text><path d="M487,711.8125 L703,711.8125 L703,718.9453 L693,728.9453 L487,728.9453 L487,711.8125 " fill="#EEEEEE" style="stroke:#000000;stroke-width:1.5;"/><rect fill="none" height="337.7266" style="stroke:#000000;stroke-width:1.5;" width="696" x="487" y="711.8125"/><text fill="#000000" font-family="sans-serif" font-size="13" font-weight="bold" lengthAdjust="spacing" textLength="171" x="502" y="724.8794">Add primary metadata</text><polygon fill="#181818" points="547.5,746.0781,537.5,750.0781,547.5,754.0781,543.5,750.0781" style="stroke:#181818;stroke-width:1.0;"/><line style="stroke:#181818;stroke-width:1.0;" x1="541.5" x2="815.5" y1="750.0781" y2="750.0781"/><text fill="#000000" font-family="sans-serif" font-size="13" font-weight="bold" lengthAdjust="spacing" textLength="18" x="553.5" y="745.0122">18</text><text fill="#000000" font-family="sans-serif" font-size="13" lengthAdjust="spacing" textLength="4" x="575.5" y="745.0122"> </text><polygon fill="#181818" points="804.5,775.2109,814.5,779.2109,804.5,783.2109,808.5,779.2109" style="stroke:#181818;stroke-width:1.0;"/><line style="stroke:#181818;stroke-width:1.0;stroke-dasharray:2.0,2.0;" x1="536.5" x2="810.5" y1="779.2109" y2="779.2109"/><text fill="#000000" font-family="sans-serif" font-size="13" font-weight="bold" lengthAdjust="spacing" textLength="18" x="543.5" y="774.145">19</text><text fill="#000000" font-family="sans-serif" font-size="13" lengthAdjust="spacing" textLength="138" x="565.5" y="774.145">Composition JSON file</text><line style="stroke:#181818;stroke-width:1.0;stroke-dasharray:2.0,2.0;" x1="816.5" x2="858.5" y1="823.4766" y2="823.4766"/><line style="stroke:#181818;stroke-width:1.0;stroke-dasharray:2.0,2.0;" x1="858.5" x2="858.5" y1="823.4766" y2="836.4766"/><line style="stroke:#181818;stroke-width:1.0;stroke-dasharray:2.0,2.0;" x1="817.5" x2="858.5" y1="836.4766" y2="836.4766"/><polygon fill="#181818" points="827.5,832.4766,817.5,836.4766,827.5,840.4766,823.5,836.4766" style="stroke:#181818;stroke-width:1.0;"/><text fill="#000000" font-family="sans-serif" font-size="13" font-weight="bold" lengthAdjust="spacing" textLength="19" x="823.5" y="810.8442">20</text><text fill="#000000" font-family="sans-serif" font-size="13" lengthAdjust="spacing" textLength="30" x="846.5" y="803.2778">Build</text><text fill="#000000" font-family="sans-serif" font-size="13" lengthAdjust="spacing" textLength="63" x="846.5" y="818.4106">metadata</text><polygon fill="#181818" points="958.5,876.7422,968.5,880.7422,958.5,884.7422,962.5,880.7422" style="stroke:#181818;stroke-width:1.0;"/><line style="stroke:#181818;stroke-width:1.0;" x1="816.5" x2="964.5" y1="880.7422" y2="880.7422"/><text fill="#000000" font-family="sans-serif" font-size="13" font-weight="bold" lengthAdjust="spacing" textLength="18" x="823.5" y="868.1099">21</text><text fill="#000000" font-family="sans-serif" font-size="13" lengthAdjust="spacing" textLength="21" x="845.5" y="860.5435">Set</text><text fill="#000000" font-family="sans-serif" font-size="13" lengthAdjust="spacing" textLength="63" x="845.5" y="875.6763">metadata</text><polygon fill="#181818" points="1030.5,905.875,1040.5,909.875,1030.5,913.875,1034.5,909.875" style="stroke:#181818;stroke-width:1.0;"/><line style="stroke:#181818;stroke-width:1.0;" x1="970.5" x2="1036.5" y1="909.875" y2="909.875"/><text fill="#000000" font-family="sans-serif" font-size="13" font-weight="bold" lengthAdjust="spacing" textLength="18" x="977.5" y="904.8091">22</text><text fill="#000000" font-family="sans-serif" font-size="13" lengthAdjust="spacing" textLength="4" x="999.5" y="904.8091"> </text><polygon fill="#181818" points="1126.5,950.1406,1136.5,954.1406,1126.5,958.1406,1130.5,954.1406" style="stroke:#181818;stroke-width:1.0;"/><line style="stroke:#181818;stroke-width:1.0;" x1="1052.5" x2="1132.5" y1="954.1406" y2="954.1406"/><text fill="#000000" font-family="sans-serif" font-size="13" font-weight="bold" lengthAdjust="spacing" textLength="17" x="1059.5" y="941.5083">23</text><text fill="#000000" font-family="sans-serif" font-size="13" lengthAdjust="spacing" textLength="40" x="1080.5" y="933.9419">iRODS</text><text fill="#000000" font-family="sans-serif" font-size="13" lengthAdjust="spacing" textLength="20" x="1080.5" y="949.0747">API</text><polygon fill="#181818" points="1063.5,979.2734,1053.5,983.2734,1063.5,987.2734,1059.5,983.2734" style="stroke:#181818;stroke-width:1.0;"/><line style="stroke:#181818;stroke-width:1.0;stroke-dasharray:2.0,2.0;" x1="1057.5" x2="1137.5" y1="983.2734" y2="983.2734"/><text fill="#000000" font-family="sans-serif" font-size="13" font-weight="bold" lengthAdjust="spacing" textLength="18" x="1069.5" y="978.2075">24</text><text fill="#000000" font-family="sans-serif" font-size="13" lengthAdjust="spacing" textLength="4" x="1091.5" y="978.2075"> </text><polygon fill="#181818" points="981.5,1008.4063,971.5,1012.4063,981.5,1016.4063,977.5,1012.4063" style="stroke:#181818;stroke-width:1.0;"/><line style="stroke:#181818;stroke-width:1.0;stroke-dasharray:2.0,2.0;" x1="975.5" x2="1041.5" y1="1012.4063" y2="1012.4063"/><text fill="#000000" font-family="sans-serif" font-size="13" font-weight="bold" lengthAdjust="spacing" textLength="18" x="987.5" y="1007.3403">25</text><text fill="#000000" font-family="sans-serif" font-size="13" lengthAdjust="spacing" textLength="4" x="1009.5" y="1007.3403"> </text><polygon fill="#181818" points="827.5,1037.5391,817.5,1041.5391,827.5,1045.5391,823.5,1041.5391" style="stroke:#181818;stroke-width:1.0;"/><line style="stroke:#181818;stroke-width:1.0;stroke-dasharray:2.0,2.0;" x1="821.5" x2="969.5" y1="1041.5391" y2="1041.5391"/><text fill="#000000" font-family="sans-serif" font-size="13" font-weight="bold" lengthAdjust="spacing" textLength="18" x="833.5" y="1036.4731">26</text><text fill="#000000" font-family="sans-serif" font-size="13" lengthAdjust="spacing" textLength="4" x="855.5" y="1036.4731"> </text><path d="M487,1063.5391 L722,1063.5391 L722,1070.6719 L712,1080.6719 L487,1080.6719 L487,1063.5391 " fill="#EEEEEE" style="stroke:#000000;stroke-width:1.5;"/><rect fill="none" height="484.5234" style="stroke:#000000;stroke-width:1.5;" width="696" x="487" y="1063.5391"/><text fill="#000000" font-family="sans-serif" font-size="13" font-weight="bold" lengthAdjust="spacing" textLength="190" x="502" y="1076.606">Add secondary metadata</text><polygon fill="#181818" points="547.5,1097.8047,537.5,1101.8047,547.5,1105.8047,543.5,1101.8047" style="stroke:#181818;stroke-width:1.0;"/><line style="stroke:#181818;stroke-width:1.0;" x1="541.5" x2="815.5" y1="1101.8047" y2="1101.8047"/><text fill="#000000" font-family="sans-serif" font-size="13" font-weight="bold" lengthAdjust="spacing" textLength="18" x="553.5" y="1096.7388">27</text><text fill="#000000" font-family="sans-serif" font-size="13" lengthAdjust="spacing" textLength="4" x="575.5" y="1096.7388"> </text><polygon fill="#181818" points="804.5,1126.9375,814.5,1130.9375,804.5,1134.9375,808.5,1130.9375" style="stroke:#181818;stroke-width:1.0;"/><line style="stroke:#181818;stroke-width:1.0;stroke-dasharray:2.0,2.0;" x1="536.5" x2="810.5" y1="1130.9375" y2="1130.9375"/><text fill="#000000" font-family="sans-serif" font-size="13" font-weight="bold" lengthAdjust="spacing" textLength="18" x="543.5" y="1125.8716">28</text><text fill="#000000" font-family="sans-serif" font-size="13" lengthAdjust="spacing" textLength="138" x="565.5" y="1125.8716">Composition JSON file</text><polygon fill="#181818" points="629.5,1171.2031,619.5,1175.2031,629.5,1179.2031,625.5,1175.2031" style="stroke:#181818;stroke-width:1.0;"/><line style="stroke:#181818;stroke-width:1.0;" x1="623.5" x2="815.5" y1="1175.2031" y2="1175.2031"/><text fill="#000000" font-family="sans-serif" font-size="13" font-weight="bold" lengthAdjust="spacing" textLength="18" x="635.5" y="1162.5708">29</text><text fill="#000000" font-family="sans-serif" font-size="13" lengthAdjust="spacing" textLength="60" x="657.5" y="1155.0044">Metadata</text><text fill="#000000" font-family="sans-serif" font-size="13" lengthAdjust="spacing" textLength="49" x="657.5" y="1170.1372">request</text><polygon fill="#181818" points="696.5,1215.4688,706.5,1219.4688,696.5,1223.4688,700.5,1219.4688" style="stroke:#181818;stroke-width:1.0;"/><line style="stroke:#181818;stroke-width:1.0;" x1="618.5" x2="702.5" y1="1219.4688" y2="1219.4688"/><text fill="#000000" font-family="sans-serif" font-size="13" font-weight="bold" lengthAdjust="spacing" textLength="18" x="625.5" y="1206.8364">30</text><text fill="#000000" font-family="sans-serif" font-size="13" lengthAdjust="spacing" textLength="25" x="647.5" y="1199.27">SQL</text><text fill="#000000" font-family="sans-serif" font-size="13" lengthAdjust="spacing" textLength="37" x="647.5" y="1214.4028">query</text><polygon fill="#181818" points="629.5,1244.6016,619.5,1248.6016,629.5,1252.6016,625.5,1248.6016" style="stroke:#181818;stroke-width:1.0;"/><line style="stroke:#181818;stroke-width:1.0;stroke-dasharray:2.0,2.0;" x1="623.5" x2="707.5" y1="1248.6016" y2="1248.6016"/><text fill="#000000" font-family="sans-serif" font-size="13" font-weight="bold" lengthAdjust="spacing" textLength="17" x="635.5" y="1243.5356">31</text><text fill="#000000" font-family="sans-serif" font-size="13" lengthAdjust="spacing" textLength="4" x="656.5" y="1243.5356"> </text><polygon fill="#181818" points="804.5,1273.7344,814.5,1277.7344,804.5,1281.7344,808.5,1277.7344" style="stroke:#181818;stroke-width:1.0;"/><line style="stroke:#181818;stroke-width:1.0;stroke-dasharray:2.0,2.0;" x1="618.5" x2="810.5" y1="1277.7344" y2="1277.7344"/><text fill="#000000" font-family="sans-serif" font-size="13" font-weight="bold" lengthAdjust="spacing" textLength="17" x="625.5" y="1272.6685">32</text><text fill="#000000" font-family="sans-serif" font-size="13" lengthAdjust="spacing" textLength="4" x="646.5" y="1272.6685"> </text><line style="stroke:#181818;stroke-width:1.0;stroke-dasharray:2.0,2.0;" x1="816.5" x2="858.5" y1="1322" y2="1322"/><line style="stroke:#181818;stroke-width:1.0;stroke-dasharray:2.0,2.0;" x1="858.5" x2="858.5" y1="1322" y2="1335"/><line style="stroke:#181818;stroke-width:1.0;stroke-dasharray:2.0,2.0;" x1="817.5" x2="858.5" y1="1335" y2="1335"/><polygon fill="#181818" points="827.5,1331,817.5,1335,827.5,1339,823.5,1335" style="stroke:#181818;stroke-width:1.0;"/><text fill="#000000" font-family="sans-serif" font-size="13" font-weight="bold" lengthAdjust="spacing" textLength="16" x="823.5" y="1309.3677">33</text><text fill="#000000" font-family="sans-serif" font-size="13" lengthAdjust="spacing" textLength="30" x="843.5" y="1301.8013">Build</text><text fill="#000000" font-family="sans-serif" font-size="13" lengthAdjust="spacing" textLength="63" x="843.5" y="1316.9341">metadata</text><polygon fill="#181818" points="958.5,1375.2656,968.5,1379.2656,958.5,1383.2656,962.5,1379.2656" style="stroke:#181818;stroke-width:1.0;"/><line style="stroke:#181818;stroke-width:1.0;" x1="816.5" x2="964.5" y1="1379.2656" y2="1379.2656"/><text fill="#000000" font-family="sans-serif" font-size="13" font-weight="bold" lengthAdjust="spacing" textLength="17" x="823.5" y="1366.6333">34</text><text fill="#000000" font-family="sans-serif" font-size="13" lengthAdjust="spacing" textLength="108" x="844.5" y="1359.0669">Compare/update</text><text fill="#000000" font-family="sans-serif" font-size="13" lengthAdjust="spacing" textLength="63" x="844.5" y="1374.1997">metadata</text><polygon fill="#181818" points="1030.5,1404.3984,1040.5,1408.3984,1030.5,1412.3984,1034.5,1408.3984" style="stroke:#181818;stroke-width:1.0;"/><line style="stroke:#181818;stroke-width:1.0;" x1="970.5" x2="1036.5" y1="1408.3984" y2="1408.3984"/><text fill="#000000" font-family="sans-serif" font-size="13" font-weight="bold" lengthAdjust="spacing" textLength="17" x="977.5" y="1403.3325">35</text><text fill="#000000" font-family="sans-serif" font-size="13" lengthAdjust="spacing" textLength="4" x="998.5" y="1403.3325"> </text><polygon fill="#181818" points="1126.5,1448.6641,1136.5,1452.6641,1126.5,1456.6641,1130.5,1452.6641" style="stroke:#181818;stroke-width:1.0;"/><line style="stroke:#181818;stroke-width:1.0;" x1="1052.5" x2="1132.5" y1="1452.6641" y2="1452.6641"/><text fill="#000000" font-family="sans-serif" font-size="13" font-weight="bold" lengthAdjust="spacing" textLength="17" x="1059.5" y="1440.0317">36</text><text fill="#000000" font-family="sans-serif" font-size="13" lengthAdjust="spacing" textLength="40" x="1080.5" y="1432.4653">iRODS</text><text fill="#000000" font-family="sans-serif" font-size="13" lengthAdjust="spacing" textLength="20" x="1080.5" y="1447.5981">API</text><polygon fill="#181818" points="1063.5,1477.7969,1053.5,1481.7969,1063.5,1485.7969,1059.5,1481.7969" style="stroke:#181818;stroke-width:1.0;"/><line style="stroke:#181818;stroke-width:1.0;stroke-dasharray:2.0,2.0;" x1="1057.5" x2="1137.5" y1="1481.7969" y2="1481.7969"/><text fill="#000000" font-family="sans-serif" font-size="13" font-weight="bold" lengthAdjust="spacing" textLength="17" x="1069.5" y="1476.731">37</text><text fill="#000000" font-family="sans-serif" font-size="13" lengthAdjust="spacing" textLength="4" x="1090.5" y="1476.731"> </text><polygon fill="#181818" points="981.5,1506.9297,971.5,1510.9297,981.5,1514.9297,977.5,1510.9297" style="stroke:#181818;stroke-width:1.0;"/><line style="stroke:#181818;stroke-width:1.0;stroke-dasharray:2.0,2.0;" x1="975.5" x2="1041.5" y1="1510.9297" y2="1510.9297"/><text fill="#000000" font-family="sans-serif" font-size="13" font-weight="bold" lengthAdjust="spacing" textLength="17" x="987.5" y="1505.8638">38</text><text fill="#000000" font-family="sans-serif" font-size="13" lengthAdjust="spacing" textLength="4" x="1008.5" y="1505.8638"> </text><polygon fill="#181818" points="827.5,1536.0625,817.5,1540.0625,827.5,1544.0625,823.5,1540.0625" style="stroke:#181818;stroke-width:1.0;"/><line style="stroke:#181818;stroke-width:1.0;stroke-dasharray:2.0,2.0;" x1="821.5" x2="969.5" y1="1540.0625" y2="1540.0625"/><text fill="#000000" font-family="sans-serif" font-size="13" font-weight="bold" lengthAdjust="spacing" textLength="17" x="833.5" y="1534.9966">39</text><text fill="#000000" font-family="sans-serif" font-size="13" lengthAdjust="spacing" textLength="4" x="854.5" y="1534.9966"> </text><path d="M756,1562.0625 L950,1562.0625 L950,1569.1953 L940,1579.1953 L756,1579.1953 L756,1562.0625 " fill="#EEEEEE" style="stroke:#000000;stroke-width:1.5;"/><rect fill="none" height="497.5234" style="stroke:#000000;stroke-width:1.5;" width="427" x="756" y="1562.0625"/><text fill="#000000" font-family="sans-serif" font-size="13" font-weight="bold" lengthAdjust="spacing" textLength="149" x="771" y="1575.1294">Update permissions</text><line style="stroke:#181818;stroke-width:1.0;" x1="816.5" x2="858.5" y1="1615.4609" y2="1615.4609"/><line style="stroke:#181818;stroke-width:1.0;" x1="858.5" x2="858.5" y1="1615.4609" y2="1628.4609"/><line style="stroke:#181818;stroke-width:1.0;" x1="817.5" x2="858.5" y1="1628.4609" y2="1628.4609"/><polygon fill="#181818" points="827.5,1624.4609,817.5,1628.4609,827.5,1632.4609,823.5,1628.4609" style="stroke:#181818;stroke-width:1.0;"/><text fill="#000000" font-family="sans-serif" font-size="13" font-weight="bold" lengthAdjust="spacing" textLength="19" x="823.5" y="1602.8286">40</text><text fill="#000000" font-family="sans-serif" font-size="13" lengthAdjust="spacing" textLength="60" x="846.5" y="1595.2622">Metadata</text><text fill="#000000" font-family="sans-serif" font-size="13" lengthAdjust="spacing" textLength="49" x="846.5" y="1610.395">request</text><polygon fill="#181818" points="1030.5,1653.5938,1040.5,1657.5938,1030.5,1661.5938,1034.5,1657.5938" style="stroke:#181818;stroke-width:1.0;"/><line style="stroke:#181818;stroke-width:1.0;" x1="970.5" x2="1036.5" y1="1657.5938" y2="1657.5938"/><text fill="#000000" font-family="sans-serif" font-size="13" font-weight="bold" lengthAdjust="spacing" textLength="18" x="977.5" y="1652.5278">41</text><text fill="#000000" font-family="sans-serif" font-size="13" lengthAdjust="spacing" textLength="4" x="999.5" y="1652.5278"> </text><polygon fill="#181818" points="1126.5,1697.8594,1136.5,1701.8594,1126.5,1705.8594,1130.5,1701.8594" style="stroke:#181818;stroke-width:1.0;"/><line style="stroke:#181818;stroke-width:1.0;" x1="1052.5" x2="1132.5" y1="1701.8594" y2="1701.8594"/><text fill="#000000" font-family="sans-serif" font-size="13" font-weight="bold" lengthAdjust="spacing" textLength="18" x="1059.5" y="1689.2271">42</text><text fill="#000000" font-family="sans-serif" font-size="13" lengthAdjust="spacing" textLength="40" x="1081.5" y="1681.6606">iRODS</text><text fill="#000000" font-family="sans-serif" font-size="13" lengthAdjust="spacing" textLength="20" x="1081.5" y="1696.7935">API</text><polygon fill="#181818" points="1063.5,1726.9922,1053.5,1730.9922,1063.5,1734.9922,1059.5,1730.9922" style="stroke:#181818;stroke-width:1.0;"/><line style="stroke:#181818;stroke-width:1.0;stroke-dasharray:2.0,2.0;" x1="1057.5" x2="1137.5" y1="1730.9922" y2="1730.9922"/><text fill="#000000" font-family="sans-serif" font-size="13" font-weight="bold" lengthAdjust="spacing" textLength="17" x="1069.5" y="1725.9263">43</text><text fill="#000000" font-family="sans-serif" font-size="13" lengthAdjust="spacing" textLength="4" x="1090.5" y="1725.9263"> </text><polygon fill="#181818" points="981.5,1756.125,971.5,1760.125,981.5,1764.125,977.5,1760.125" style="stroke:#181818;stroke-width:1.0;"/><line style="stroke:#181818;stroke-width:1.0;stroke-dasharray:2.0,2.0;" x1="975.5" x2="1041.5" y1="1760.125" y2="1760.125"/><text fill="#000000" font-family="sans-serif" font-size="13" font-weight="bold" lengthAdjust="spacing" textLength="18" x="987.5" y="1755.0591">44</text><text fill="#000000" font-family="sans-serif" font-size="13" lengthAdjust="spacing" textLength="4" x="1009.5" y="1755.0591"> </text><polygon fill="#181818" points="827.5,1785.2578,817.5,1789.2578,827.5,1793.2578,823.5,1789.2578" style="stroke:#181818;stroke-width:1.0;"/><line style="stroke:#181818;stroke-width:1.0;stroke-dasharray:2.0,2.0;" x1="821.5" x2="969.5" y1="1789.2578" y2="1789.2578"/><text fill="#000000" font-family="sans-serif" font-size="13" font-weight="bold" lengthAdjust="spacing" textLength="18" x="833.5" y="1784.1919">45</text><text fill="#000000" font-family="sans-serif" font-size="13" lengthAdjust="spacing" textLength="4" x="855.5" y="1784.1919"> </text><line style="stroke:#181818;stroke-width:1.0;stroke-dasharray:2.0,2.0;" x1="816.5" x2="858.5" y1="1833.5234" y2="1833.5234"/><line style="stroke:#181818;stroke-width:1.0;stroke-dasharray:2.0,2.0;" x1="858.5" x2="858.5" y1="1833.5234" y2="1846.5234"/><line style="stroke:#181818;stroke-width:1.0;stroke-dasharray:2.0,2.0;" x1="817.5" x2="858.5" y1="1846.5234" y2="1846.5234"/><polygon fill="#181818" points="827.5,1842.5234,817.5,1846.5234,827.5,1850.5234,823.5,1846.5234" style="stroke:#181818;stroke-width:1.0;"/><text fill="#000000" font-family="sans-serif" font-size="13" font-weight="bold" lengthAdjust="spacing" textLength="18" x="823.5" y="1820.8911">46</text><text fill="#000000" font-family="sans-serif" font-size="13" lengthAdjust="spacing" textLength="30" x="845.5" y="1813.3247">Build</text><text fill="#000000" font-family="sans-serif" font-size="13" lengthAdjust="spacing" textLength="77" x="845.5" y="1828.4575">permissions</text><polygon fill="#181818" points="958.5,1886.7891,968.5,1890.7891,958.5,1894.7891,962.5,1890.7891" style="stroke:#181818;stroke-width:1.0;"/><line style="stroke:#181818;stroke-width:1.0;" x1="816.5" x2="964.5" y1="1890.7891" y2="1890.7891"/><text fill="#000000" font-family="sans-serif" font-size="13" font-weight="bold" lengthAdjust="spacing" textLength="18" x="823.5" y="1878.1567">47</text><text fill="#000000" font-family="sans-serif" font-size="13" lengthAdjust="spacing" textLength="108" x="845.5" y="1870.5903">Compare/update</text><text fill="#000000" font-family="sans-serif" font-size="13" lengthAdjust="spacing" textLength="77" x="845.5" y="1885.7231">permissions</text><polygon fill="#181818" points="1030.5,1915.9219,1040.5,1919.9219,1030.5,1923.9219,1034.5,1919.9219" style="stroke:#181818;stroke-width:1.0;"/><line style="stroke:#181818;stroke-width:1.0;" x1="970.5" x2="1036.5" y1="1919.9219" y2="1919.9219"/><text fill="#000000" font-family="sans-serif" font-size="13" font-weight="bold" lengthAdjust="spacing" textLength="18" x="977.5" y="1914.856">48</text><text fill="#000000" font-family="sans-serif" font-size="13" lengthAdjust="spacing" textLength="4" x="999.5" y="1914.856"> </text><polygon fill="#181818" points="1126.5,1960.1875,1136.5,1964.1875,1126.5,1968.1875,1130.5,1964.1875" style="stroke:#181818;stroke-width:1.0;"/><line style="stroke:#181818;stroke-width:1.0;" x1="1052.5" x2="1132.5" y1="1964.1875" y2="1964.1875"/><text fill="#000000" font-family="sans-serif" font-size="13" font-weight="bold" lengthAdjust="spacing" textLength="18" x="1059.5" y="1951.5552">49</text><text fill="#000000" font-family="sans-serif" font-size="13" lengthAdjust="spacing" textLength="40" x="1081.5" y="1943.9888">iRODS</text><text fill="#000000" font-family="sans-serif" font-size="13" lengthAdjust="spacing" textLength="20" x="1081.5" y="1959.1216">API</text><polygon fill="#181818" points="1063.5,1989.3203,1053.5,1993.3203,1063.5,1997.3203,1059.5,1993.3203" style="stroke:#181818;stroke-width:1.0;"/><line style="stroke:#181818;stroke-width:1.0;stroke-dasharray:2.0,2.0;" x1="1057.5" x2="1137.5" y1="1993.3203" y2="1993.3203"/><text fill="#000000" font-family="sans-serif" font-size="13" font-weight="bold" lengthAdjust="spacing" textLength="19" x="1069.5" y="1988.2544">50</text><text fill="#000000" font-family="sans-serif" font-size="13" lengthAdjust="spacing" textLength="4" x="1092.5" y="1988.2544"> </text><polygon fill="#181818" points="981.5,2018.4531,971.5,2022.4531,981.5,2026.4531,977.5,2022.4531" style="stroke:#181818;stroke-width:1.0;"/><line style="stroke:#181818;stroke-width:1.0;stroke-dasharray:2.0,2.0;" x1="975.5" x2="1041.5" y1="2022.4531" y2="2022.4531"/><text fill="#000000" font-family="sans-serif" font-size="13" font-weight="bold" lengthAdjust="spacing" textLength="18" x="987.5" y="2017.3872">51</text><text fill="#000000" font-family="sans-serif" font-size="13" lengthAdjust="spacing" textLength="4" x="1009.5" y="2017.3872"> </text><polygon fill="#181818" points="827.5,2047.5859,817.5,2051.5859,827.5,2055.5859,823.5,2051.5859" style="stroke:#181818;stroke-width:1.0;"/><line style="stroke:#181818;stroke-width:1.0;stroke-dasharray:2.0,2.0;" x1="821.5" x2="969.5" y1="2051.5859" y2="2051.5859"/><text fill="#000000" font-family="sans-serif" font-size="13" font-weight="bold" lengthAdjust="spacing" textLength="18" x="833.5" y="2046.52">52</text><text fill="#000000" font-family="sans-serif" font-size="13" lengthAdjust="spacing" textLength="4" x="855.5" y="2046.52"> </text><polygon fill="#181818" points="401,2083.7188,391,2087.7188,401,2091.7188,397,2087.7188" style="stroke:#181818;stroke-width:1.0;"/><line style="stroke:#181818;stroke-width:1.0;stroke-dasharray:2.0,2.0;" x1="395" x2="969.5" y1="2087.7188" y2="2087.7188"/><text fill="#000000" font-family="sans-serif" font-size="13" font-weight="bold" lengthAdjust="spacing" textLength="17" x="407" y="2082.6528">53</text><text fill="#000000" font-family="sans-serif" font-size="13" lengthAdjust="spacing" textLength="4" x="428" y="2082.6528"> </text><!--SRC=[pLR9ZjGm4BtxAwnSE6NwteUHXXa9WMPfQ24kaI8dCOabRtXfr7-FxQns0iCm0lhIRLUzgjHxBxBpfZD6wlrk9odYnZ9wLGksq_YRnRp6UKDGgn0305aZk6KLLW18f0ofYNG5C3lsKCBRWaiYCIKSPn1fw7huFQW5DqfGcBb0QKH9b6XqYLJTaHDM0JfkPYoNRIbjHOdkIaAfPOIZKbb-9McesCebSndKXg5Ema66aVeOg8Jb3L9dc1smel3Xlk1VaCATi1eN_ERmld-6ovMCVkzA90bea44LqXXc4JmWFMZHzF7m3bPMEo6qdjjvIcCqT8mBoAUdksEC7fIAe1LoFWH4MCMSGu-G3ANEjTgG4pAudt3QzTbfEyeo1mRhmB20-VNiqOIQ8yF2mpQDcKf-dUqPWIsGRnrB0gWG4dfNu5T2iIFRAc4bl1No7C8W5NpT8zhvT3z1-FNRKPZX7-OZ1ExXtVpa2HzwkTpi9UX3UTfxJMSzxO29WdlurXBQG8OD2YIVP-bgZjZ0Wayrpz5-1OsazGO5W7apUdNJD50gmloR7KsN4jeoOaERMy6aqCGGDzk7uzDZyETboYva-brfBqbP68HTwgknErIRVwtmTNnwkig7uUa5L_x6q0R425VYrrxIZ-w0TH1r1Y6IfztIoYqj_gxhNWPt0-oiT3NuSb-0ps4-hnuZMZlJz4_f9RAixVg_r5xgvvBo7rcQQdOHhgxHcpTgVyOsEBbP5u7DiaL-kjiNiU5Zu0S0]--></g></svg>