<?xml version="1.0" encoding="UTF-8" standalone="no"?><svg xmlns="http://www.w3.org/2000/svg" xmlns:xlink="http://www.w3.org/1999/xlink" contentStyleType="text/css" height="1542px" preserveAspectRatio="none" style="width:1011px;height:1542px;background:#FFFFFF;" version="1.1" viewBox="0 0 1011 1542" width="1011px" zoomAndPan="magnify"><defs/><g><rect fill="#FFFFFF" height="50.6211" style="stroke:#181818;stroke-width:1.0;" width="10" x="99.5" y="96.4648"/><rect fill="#90EE90" height="1342.2168" style="stroke:#181818;stroke-width:1.0;" width="10" x="203" y="96.4648"/><rect fill="#FFFFFF" height="1290.5957" style="stroke:#181818;stroke-width:1.0;" width="10" x="404" y="147.0859"/><rect fill="#696969" height="1342.2168" style="stroke:#181818;stroke-width:1.0;" width="10" x="952.5" y="96.4648"/><rect fill="none" height="120.5527" style="stroke:#000000;stroke-width:1.5;" width="320" x="157" y="186.3965"/><rect fill="none" height="237.7949" style="stroke:#000000;stroke-width:1.5;" width="654.5" x="341" y="320.9492"/><rect fill="none" height="857.9375" style="stroke:#000000;stroke-width:1.5;" width="674.5" x="331" y="572.7441"/><rect fill="none" height="295.416" style="stroke:#000000;stroke-width:1.5;" width="654.5" x="341" y="597.0547"/><rect fill="none" height="517.2109" style="stroke:#000000;stroke-width:1.5;" width="654.5" x="341" y="906.4707"/><line style="stroke:#181818;stroke-width:0.5;stroke-dasharray:5.0,5.0;" x1="23" x2="23" y1="86.4648" y2="1447.6816"/><line style="stroke:#181818;stroke-width:0.5;stroke-dasharray:5.0,5.0;" x1="104" x2="104" y1="86.4648" y2="1447.6816"/><line style="stroke:#181818;stroke-width:0.5;stroke-dasharray:5.0,5.0;" x1="208" x2="208" y1="86.4648" y2="1447.6816"/><line style="stroke:#181818;stroke-width:0.5;stroke-dasharray:5.0,5.0;" x1="300" x2="300" y1="86.4648" y2="1447.6816"/><line style="stroke:#181818;stroke-width:0.5;stroke-dasharray:5.0,5.0;" x1="409" x2="409" y1="86.4648" y2="1447.6816"/><line style="stroke:#181818;stroke-width:0.5;stroke-dasharray:5.0,5.0;" x1="607" x2="607" y1="86.4648" y2="1447.6816"/><line style="stroke:#181818;stroke-width:0.5;stroke-dasharray:5.0,5.0;" x1="759" x2="759" y1="86.4648" y2="1447.6816"/><line style="stroke:#181818;stroke-width:0.5;stroke-dasharray:5.0,5.0;" x1="867" x2="867" y1="86.4648" y2="1447.6816"/><line style="stroke:#181818;stroke-width:0.5;stroke-dasharray:5.0,5.0;" x1="957.5" x2="957.5" y1="86.4648" y2="1447.6816"/><text fill="#000000" font-family="sans-serif" font-size="14" lengthAdjust="spacing" textLength="31" x="5" y="83.5117">LIMS</text><path d="M5.5,33.9766 C5.5,23.9766 23.5,23.9766 23.5,23.9766 C23.5,23.9766 41.5,23.9766 41.5,33.9766 L41.5,59.9766 C41.5,69.9766 23.5,69.9766 23.5,69.9766 C23.5,69.9766 5.5,69.9766 5.5,59.9766 L5.5,33.9766 " fill="#E2E2F0" style="stroke:#181818;stroke-width:1.5;"/><path d="M5.5,33.9766 C5.5,43.9766 23.5,43.9766 23.5,43.9766 C23.5,43.9766 41.5,43.9766 41.5,33.9766 " fill="none" style="stroke:#181818;stroke-width:1.5;"/><text fill="#000000" font-family="sans-serif" font-size="14" lengthAdjust="spacing" textLength="31" x="5" y="1460.2168">LIMS</text><path d="M5.5,1473.1699 C5.5,1463.1699 23.5,1463.1699 23.5,1463.1699 C23.5,1463.1699 41.5,1463.1699 41.5,1473.1699 L41.5,1499.1699 C41.5,1509.1699 23.5,1509.1699 23.5,1509.1699 C23.5,1509.1699 5.5,1509.1699 5.5,1499.1699 L5.5,1473.1699 " fill="#E2E2F0" style="stroke:#181818;stroke-width:1.5;"/><path d="M5.5,1473.1699 C5.5,1483.1699 23.5,1483.1699 23.5,1483.1699 C23.5,1483.1699 41.5,1483.1699 41.5,1473.1699 " fill="none" style="stroke:#181818;stroke-width:1.5;"/><text fill="#000000" font-family="sans-serif" font-size="14" lengthAdjust="spacing" textLength="99" x="52" y="67.0234">ML Warehouse</text><text fill="#000000" font-family="sans-serif" font-size="14" lengthAdjust="spacing" textLength="55" x="74" y="83.5117">Updater</text><ellipse cx="104.5" cy="37.4883" fill="#E2E2F0" rx="12" ry="12" style="stroke:#181818;stroke-width:0.5;"/><polygon fill="#181818" points="100.5,25.4883,106.5,20.4883,104.5,25.4883,106.5,30.4883,100.5,25.4883" style="stroke:#181818;stroke-width:1.0;"/><text fill="#000000" font-family="sans-serif" font-size="14" lengthAdjust="spacing" textLength="99" x="52" y="1460.2168">ML Warehouse</text><text fill="#000000" font-family="sans-serif" font-size="14" lengthAdjust="spacing" textLength="55" x="74" y="1476.7051">Updater</text><ellipse cx="104.5" cy="1495.6582" fill="#E2E2F0" rx="12" ry="12" style="stroke:#181818;stroke-width:0.5;"/><polygon fill="#181818" points="100.5,1483.6582,106.5,1478.6582,104.5,1483.6582,106.5,1488.6582,100.5,1483.6582" style="stroke:#181818;stroke-width:1.0;"/><text fill="#000000" font-family="sans-serif" font-size="14" lengthAdjust="spacing" textLength="19" x="195.5" y="67.0234">ML</text><text fill="#000000" font-family="sans-serif" font-size="14" lengthAdjust="spacing" textLength="76" x="167" y="83.5117">Warehouse</text><path d="M190,17.4883 C190,7.4883 208,7.4883 208,7.4883 C208,7.4883 226,7.4883 226,17.4883 L226,43.4883 C226,53.4883 208,53.4883 208,53.4883 C208,53.4883 190,53.4883 190,43.4883 L190,17.4883 " fill="#E2E2F0" style="stroke:#181818;stroke-width:1.5;"/><path d="M190,17.4883 C190,27.4883 208,27.4883 208,27.4883 C208,27.4883 226,27.4883 226,17.4883 " fill="none" style="stroke:#181818;stroke-width:1.5;"/><text fill="#000000" font-family="sans-serif" font-size="14" lengthAdjust="spacing" textLength="19" x="195.5" y="1460.2168">ML</text><text fill="#000000" font-family="sans-serif" font-size="14" lengthAdjust="spacing" textLength="76" x="167" y="1476.7051">Warehouse</text><path d="M190,1489.6582 C190,1479.6582 208,1479.6582 208,1479.6582 C208,1479.6582 226,1479.6582 226,1489.6582 L226,1515.6582 C226,1525.6582 208,1525.6582 208,1525.6582 C208,1525.6582 190,1525.6582 190,1515.6582 L190,1489.6582 " fill="#E2E2F0" style="stroke:#181818;stroke-width:1.5;"/><path d="M190,1489.6582 C190,1499.6582 208,1499.6582 208,1499.6582 C208,1499.6582 226,1499.6582 226,1489.6582 " fill="none" style="stroke:#181818;stroke-width:1.5;"/><text fill="#000000" font-family="sans-serif" font-size="14" lengthAdjust="spacing" textLength="19" x="287.5" y="50.5352">ML</text><text fill="#000000" font-family="sans-serif" font-size="14" lengthAdjust="spacing" textLength="76" x="259" y="67.0234">Warehouse</text><text fill="#000000" font-family="sans-serif" font-size="14" lengthAdjust="spacing" textLength="22" x="286" y="83.5117">API</text><path d="M279.5,9 L279.5,33 M279.5,21 L296.5,21 " fill="none" style="stroke:#181818;stroke-width:0.5;"/><ellipse cx="308.5" cy="21" fill="#E2E2F0" rx="12" ry="12" style="stroke:#181818;stroke-width:0.5;"/><text fill="#000000" font-family="sans-serif" font-size="14" lengthAdjust="spacing" textLength="19" x="287.5" y="1460.2168">ML</text><text fill="#000000" font-family="sans-serif" font-size="14" lengthAdjust="spacing" textLength="76" x="259" y="1476.7051">Warehouse</text><text fill="#000000" font-family="sans-serif" font-size="14" lengthAdjust="spacing" textLength="22" x="286" y="1493.1934">API</text><path d="M279.5,1500.1465 L279.5,1524.1465 M279.5,1512.1465 L296.5,1512.1465 " fill="none" style="stroke:#181818;stroke-width:0.5;"/><ellipse cx="308.5" cy="1512.1465" fill="#E2E2F0" rx="12" ry="12" style="stroke:#181818;stroke-width:0.5;"/><text fill="#000000" font-family="sans-serif" font-size="14" lengthAdjust="spacing" textLength="110" x="351" y="67.0234">iRODS metadata</text><text fill="#000000" font-family="sans-serif" font-size="14" lengthAdjust="spacing" textLength="54" x="379" y="83.5117">updater</text><ellipse cx="409" cy="37.4883" fill="#E2E2F0" rx="12" ry="12" style="stroke:#181818;stroke-width:0.5;"/><polygon fill="#181818" points="405,25.4883,411,20.4883,409,25.4883,411,30.4883,405,25.4883" style="stroke:#181818;stroke-width:1.0;"/><text fill="#000000" font-family="sans-serif" font-size="14" lengthAdjust="spacing" textLength="110" x="351" y="1460.2168">iRODS metadata</text><text fill="#000000" font-family="sans-serif" font-size="14" lengthAdjust="spacing" textLength="54" x="379" y="1476.7051">updater</text><ellipse cx="409" cy="1495.6582" fill="#E2E2F0" rx="12" ry="12" style="stroke:#181818;stroke-width:0.5;"/><polygon fill="#181818" points="405,1483.6582,411,1478.6582,409,1483.6582,411,1488.6582,405,1483.6582" style="stroke:#181818;stroke-width:1.0;"/><text fill="#000000" font-family="sans-serif" font-size="14" lengthAdjust="spacing" textLength="92" x="558" y="67.0234">NPG business</text><text fill="#000000" font-family="sans-serif" font-size="14" lengthAdjust="spacing" textLength="22" x="593" y="83.5117">API</text><path d="M586.5,25.4883 L586.5,49.4883 M586.5,37.4883 L603.5,37.4883 " fill="none" style="stroke:#181818;stroke-width:0.5;"/><ellipse cx="615.5" cy="37.4883" fill="#E2E2F0" rx="12" ry="12" style="stroke:#181818;stroke-width:0.5;"/><text fill="#000000" font-family="sans-serif" font-size="14" lengthAdjust="spacing" textLength="92" x="558" y="1460.2168">NPG business</text><text fill="#000000" font-family="sans-serif" font-size="14" lengthAdjust="spacing" textLength="22" x="593" y="1476.7051">API</text><path d="M586.5,1483.6582 L586.5,1507.6582 M586.5,1495.6582 L603.5,1495.6582 " fill="none" style="stroke:#181818;stroke-width:0.5;"/><ellipse cx="615.5" cy="1495.6582" fill="#E2E2F0" rx="12" ry="12" style="stroke:#181818;stroke-width:0.5;"/><text fill="#000000" font-family="sans-serif" font-size="14" lengthAdjust="spacing" textLength="142" x="685" y="67.0234">Perl or Python iRODS</text><text fill="#000000" font-family="sans-serif" font-size="14" lengthAdjust="spacing" textLength="22" x="745" y="83.5117">API</text><path d="M738.5,25.4883 L738.5,49.4883 M738.5,37.4883 L755.5,37.4883 " fill="none" style="stroke:#181818;stroke-width:0.5;"/><ellipse cx="767.5" cy="37.4883" fill="#E2E2F0" rx="12" ry="12" style="stroke:#181818;stroke-width:0.5;"/><text fill="#000000" font-family="sans-serif" font-size="14" lengthAdjust="spacing" textLength="142" x="685" y="1460.2168">Perl or Python iRODS</text><text fill="#000000" font-family="sans-serif" font-size="14" lengthAdjust="spacing" textLength="22" x="745" y="1476.7051">API</text><path d="M738.5,1483.6582 L738.5,1507.6582 M738.5,1495.6582 L755.5,1495.6582 " fill="none" style="stroke:#181818;stroke-width:0.5;"/><ellipse cx="767.5" cy="1495.6582" fill="#E2E2F0" rx="12" ry="12" style="stroke:#181818;stroke-width:0.5;"/><text fill="#000000" font-family="sans-serif" font-size="14" lengthAdjust="spacing" textLength="40" x="844.5" y="83.5117">baton</text><path d="M847,41.9766 L847,65.9766 M847,53.9766 L864,53.9766 " fill="none" style="stroke:#181818;stroke-width:0.5;"/><ellipse cx="876" cy="53.9766" fill="#E2E2F0" rx="12" ry="12" style="stroke:#181818;stroke-width:0.5;"/><text fill="#000000" font-family="sans-serif" font-size="14" lengthAdjust="spacing" textLength="40" x="844.5" y="1460.2168">baton</text><path d="M847,1467.1699 L847,1491.1699 M847,1479.1699 L864,1479.1699 " fill="none" style="stroke:#181818;stroke-width:0.5;"/><ellipse cx="876" cy="1479.1699" fill="#E2E2F0" rx="12" ry="12" style="stroke:#181818;stroke-width:0.5;"/><rect fill="#E2E2F0" height="30.4883" rx="2.5" ry="2.5" style="stroke:#181818;stroke-width:0.5;" width="56" x="929.5" y="54.9766"/><text fill="#000000" font-family="sans-serif" font-size="14" lengthAdjust="spacing" textLength="42" x="936.5" y="75.5117">iRODS</text><rect fill="#E2E2F0" height="30.4883" rx="2.5" ry="2.5" style="stroke:#181818;stroke-width:0.5;" width="56" x="929.5" y="1446.6816"/><text fill="#000000" font-family="sans-serif" font-size="14" lengthAdjust="spacing" textLength="42" x="936.5" y="1467.2168">iRODS</text><rect fill="#FFFFFF" height="50.6211" style="stroke:#181818;stroke-width:1.0;" width="10" x="99.5" y="96.4648"/><rect fill="#90EE90" height="1342.2168" style="stroke:#181818;stroke-width:1.0;" width="10" x="203" y="96.4648"/><rect fill="#FFFFFF" height="1290.5957" style="stroke:#181818;stroke-width:1.0;" width="10" x="404" y="147.0859"/><rect fill="#696969" height="1342.2168" style="stroke:#181818;stroke-width:1.0;" width="10" x="952.5" y="96.4648"/><polygon fill="#181818" points="34.5,113.7754,24.5,117.7754,34.5,121.7754,30.5,117.7754" style="stroke:#181818;stroke-width:1.0;"/><line style="stroke:#181818;stroke-width:1.0;" x1="28.5" x2="98.5" y1="117.7754" y2="117.7754"/><text fill="#000000" font-family="sans-serif" font-size="13" font-weight="bold" lengthAdjust="spacing" textLength="9" x="40.5" y="113.0332">1</text><text fill="#000000" font-family="sans-serif" font-size="13" lengthAdjust="spacing" textLength="4" x="53.5" y="113.0332"> </text><polygon fill="#181818" points="191,143.0859,201,147.0859,191,151.0859,195,147.0859" style="stroke:#181818;stroke-width:1.0;"/><line style="stroke:#181818;stroke-width:1.0;" x1="104.5" x2="197" y1="147.0859" y2="147.0859"/><text fill="#000000" font-family="sans-serif" font-size="13" font-weight="bold" lengthAdjust="spacing" textLength="9" x="111.5" y="142.3438">2</text><text fill="#000000" font-family="sans-serif" font-size="13" lengthAdjust="spacing" textLength="4" x="124.5" y="142.3438"> </text><path d="M157,186.3965 L451,186.3965 L451,193.707 L441,203.707 L157,203.707 L157,186.3965 " fill="#EEEEEE" style="stroke:#000000;stroke-width:1.5;"/><rect fill="none" height="120.5527" style="stroke:#000000;stroke-width:1.5;" width="320" x="157" y="186.3965"/><text fill="#000000" font-family="sans-serif" font-size="13" font-weight="bold" lengthAdjust="spacing" textLength="249" x="172" y="199.9648">Find changed ML warehouse records</text><polygon fill="#181818" points="311,221.0176,301,225.0176,311,229.0176,307,225.0176" style="stroke:#181818;stroke-width:1.0;"/><line style="stroke:#181818;stroke-width:1.0;" x1="305" x2="403" y1="225.0176" y2="225.0176"/><text fill="#000000" font-family="sans-serif" font-size="13" font-weight="bold" lengthAdjust="spacing" textLength="9" x="317" y="220.2754">3</text><text fill="#000000" font-family="sans-serif" font-size="13" lengthAdjust="spacing" textLength="4" x="330" y="220.2754"> </text><polygon fill="#181818" points="224,265.6387,214,269.6387,224,273.6387,220,269.6387" style="stroke:#181818;stroke-width:1.0;"/><line style="stroke:#181818;stroke-width:1.0;" x1="218" x2="299" y1="269.6387" y2="269.6387"/><text fill="#000000" font-family="sans-serif" font-size="13" font-weight="bold" lengthAdjust="spacing" textLength="9" x="230" y="257.2412">4</text><text fill="#000000" font-family="sans-serif" font-size="13" lengthAdjust="spacing" textLength="24" x="243" y="249.5859">SQL</text><text fill="#000000" font-family="sans-serif" font-size="13" lengthAdjust="spacing" textLength="35" x="243" y="264.8965">query</text><polygon fill="#181818" points="288,294.9492,298,298.9492,288,302.9492,292,298.9492" style="stroke:#181818;stroke-width:1.0;"/><line style="stroke:#181818;stroke-width:1.0;stroke-dasharray:2.0,2.0;" x1="213" x2="294" y1="298.9492" y2="298.9492"/><text fill="#000000" font-family="sans-serif" font-size="13" font-weight="bold" lengthAdjust="spacing" textLength="9" x="220" y="294.207">5</text><text fill="#000000" font-family="sans-serif" font-size="13" lengthAdjust="spacing" textLength="4" x="233" y="294.207"> </text><path d="M341,320.9492 L573,320.9492 L573,328.2598 L563,338.2598 L341,338.2598 L341,320.9492 " fill="#EEEEEE" style="stroke:#000000;stroke-width:1.5;"/><rect fill="none" height="237.7949" style="stroke:#000000;stroke-width:1.5;" width="654.5" x="341" y="320.9492"/><text fill="#000000" font-family="sans-serif" font-size="13" font-weight="bold" lengthAdjust="spacing" textLength="187" x="356" y="334.5176">Update affected iRODS data</text><polygon fill="#181818" points="595,355.5703,605,359.5703,595,363.5703,599,359.5703" style="stroke:#181818;stroke-width:1.0;"/><line style="stroke:#181818;stroke-width:1.0;" x1="414" x2="601" y1="359.5703" y2="359.5703"/><text fill="#000000" font-family="sans-serif" font-size="13" font-weight="bold" lengthAdjust="spacing" textLength="9" x="421" y="354.8281">6</text><text fill="#000000" font-family="sans-serif" font-size="13" lengthAdjust="spacing" textLength="156" x="434" y="354.8281">Find affected iRODS data</text><polygon fill="#181818" points="747,384.8809,757,388.8809,747,392.8809,751,388.8809" style="stroke:#181818;stroke-width:1.0;"/><line style="stroke:#181818;stroke-width:1.0;" x1="607" x2="753" y1="388.8809" y2="388.8809"/><text fill="#000000" font-family="sans-serif" font-size="13" font-weight="bold" lengthAdjust="spacing" textLength="9" x="614" y="384.1387">7</text><text fill="#000000" font-family="sans-serif" font-size="13" lengthAdjust="spacing" textLength="4" x="627" y="384.1387"> </text><polygon fill="#181818" points="855.5,414.1914,865.5,418.1914,855.5,422.1914,859.5,418.1914" style="stroke:#181818;stroke-width:1.0;"/><line style="stroke:#181818;stroke-width:1.0;" x1="759" x2="861.5" y1="418.1914" y2="418.1914"/><text fill="#000000" font-family="sans-serif" font-size="13" font-weight="bold" lengthAdjust="spacing" textLength="9" x="766" y="413.4492">8</text><text fill="#000000" font-family="sans-serif" font-size="13" lengthAdjust="spacing" textLength="4" x="779" y="413.4492"> </text><polygon fill="#181818" points="940.5,458.8125,950.5,462.8125,940.5,466.8125,944.5,462.8125" style="stroke:#181818;stroke-width:1.0;"/><line style="stroke:#181818;stroke-width:1.0;" x1="867.5" x2="946.5" y1="462.8125" y2="462.8125"/><text fill="#000000" font-family="sans-serif" font-size="13" font-weight="bold" lengthAdjust="spacing" textLength="9" x="874.5" y="450.415">9</text><text fill="#000000" font-family="sans-serif" font-size="13" lengthAdjust="spacing" textLength="39" x="887.5" y="442.7598">iRODS</text><text fill="#000000" font-family="sans-serif" font-size="13" lengthAdjust="spacing" textLength="33" x="887.5" y="458.0703">C API</text><polygon fill="#181818" points="878.5,488.123,868.5,492.123,878.5,496.123,874.5,492.123" style="stroke:#181818;stroke-width:1.0;"/><line style="stroke:#181818;stroke-width:1.0;stroke-dasharray:2.0,2.0;" x1="872.5" x2="951.5" y1="492.123" y2="492.123"/><text fill="#000000" font-family="sans-serif" font-size="13" font-weight="bold" lengthAdjust="spacing" textLength="18" x="884.5" y="487.3809">10</text><text fill="#000000" font-family="sans-serif" font-size="13" lengthAdjust="spacing" textLength="4" x="906.5" y="487.3809"> </text><polygon fill="#181818" points="770,517.4336,760,521.4336,770,525.4336,766,521.4336" style="stroke:#181818;stroke-width:1.0;"/><line style="stroke:#181818;stroke-width:1.0;stroke-dasharray:2.0,2.0;" x1="764" x2="866.5" y1="521.4336" y2="521.4336"/><text fill="#000000" font-family="sans-serif" font-size="13" font-weight="bold" lengthAdjust="spacing" textLength="18" x="776" y="516.6914">11</text><text fill="#000000" font-family="sans-serif" font-size="13" lengthAdjust="spacing" textLength="4" x="798" y="516.6914"> </text><polygon fill="#181818" points="618,546.7441,608,550.7441,618,554.7441,614,550.7441" style="stroke:#181818;stroke-width:1.0;"/><line style="stroke:#181818;stroke-width:1.0;stroke-dasharray:2.0,2.0;" x1="612" x2="758" y1="550.7441" y2="550.7441"/><text fill="#000000" font-family="sans-serif" font-size="13" font-weight="bold" lengthAdjust="spacing" textLength="18" x="624" y="546.002">12</text><text fill="#000000" font-family="sans-serif" font-size="13" lengthAdjust="spacing" textLength="4" x="646" y="546.002"> </text><path d="M331,572.7441 L405,572.7441 L405,580.0547 L395,590.0547 L331,590.0547 L331,572.7441 " fill="#EEEEEE" style="stroke:#000000;stroke-width:1.5;"/><rect fill="none" height="857.9375" style="stroke:#000000;stroke-width:1.5;" width="674.5" x="331" y="572.7441"/><text fill="#000000" font-family="sans-serif" font-size="13" font-weight="bold" lengthAdjust="spacing" textLength="29" x="346" y="586.3125">loop</text><text fill="#000000" font-family="sans-serif" font-size="11" font-weight="bold" lengthAdjust="spacing" textLength="120" x="420" y="585.3789">[affected iRODS data]</text><path d="M341,597.0547 L577,597.0547 L577,604.3652 L567,614.3652 L341,614.3652 L341,597.0547 " fill="#EEEEEE" style="stroke:#000000;stroke-width:1.5;"/><rect fill="none" height="295.416" style="stroke:#000000;stroke-width:1.5;" width="654.5" x="341" y="597.0547"/><text fill="#000000" font-family="sans-serif" font-size="13" font-weight="bold" lengthAdjust="spacing" textLength="191" x="356" y="610.623">Update secondary metadata</text><polygon fill="#181818" points="595,631.6758,605,635.6758,595,639.6758,599,635.6758" style="stroke:#181818;stroke-width:1.0;"/><line style="stroke:#181818;stroke-width:1.0;" x1="414" x2="601" y1="635.6758" y2="635.6758"/><text fill="#000000" font-family="sans-serif" font-size="13" font-weight="bold" lengthAdjust="spacing" textLength="18" x="421" y="630.9336">13</text><text fill="#000000" font-family="sans-serif" font-size="13" lengthAdjust="spacing" textLength="4" x="443" y="630.9336"> </text><line style="stroke:#181818;stroke-width:1.0;stroke-dasharray:2.0,2.0;" x1="607" x2="649" y1="664.9863" y2="664.9863"/><line style="stroke:#181818;stroke-width:1.0;stroke-dasharray:2.0,2.0;" x1="649" x2="649" y1="664.9863" y2="677.9863"/><line style="stroke:#181818;stroke-width:1.0;stroke-dasharray:2.0,2.0;" x1="608" x2="649" y1="677.9863" y2="677.9863"/><polygon fill="#181818" points="618,673.9863,608,677.9863,618,681.9863,614,677.9863" style="stroke:#181818;stroke-width:1.0;"/><text fill="#000000" font-family="sans-serif" font-size="13" font-weight="bold" lengthAdjust="spacing" textLength="18" x="614" y="660.2441">14</text><text fill="#000000" font-family="sans-serif" font-size="13" lengthAdjust="spacing" textLength="93" x="636" y="660.2441">Build metadata</text><polygon fill="#181818" points="747,718.6074,757,722.6074,747,726.6074,751,722.6074" style="stroke:#181818;stroke-width:1.0;"/><line style="stroke:#181818;stroke-width:1.0;" x1="607" x2="753" y1="722.6074" y2="722.6074"/><text fill="#000000" font-family="sans-serif" font-size="13" font-weight="bold" lengthAdjust="spacing" textLength="18" x="614" y="710.21">15</text><text fill="#000000" font-family="sans-serif" font-size="13" lengthAdjust="spacing" textLength="106" x="636" y="702.5547">Compare/update</text><text fill="#000000" font-family="sans-serif" font-size="13" lengthAdjust="spacing" textLength="58" x="636" y="717.8652">metadata</text><polygon fill="#181818" points="855.5,747.918,865.5,751.918,855.5,755.918,859.5,751.918" style="stroke:#181818;stroke-width:1.0;"/><line style="stroke:#181818;stroke-width:1.0;" x1="759" x2="861.5" y1="751.918" y2="751.918"/><text fill="#000000" font-family="sans-serif" font-size="13" font-weight="bold" lengthAdjust="spacing" textLength="18" x="766" y="747.1758">16</text><text fill="#000000" font-family="sans-serif" font-size="13" lengthAdjust="spacing" textLength="4" x="788" y="747.1758"> </text><polygon fill="#181818" points="940.5,792.5391,950.5,796.5391,940.5,800.5391,944.5,796.5391" style="stroke:#181818;stroke-width:1.0;"/><line style="stroke:#181818;stroke-width:1.0;" x1="867.5" x2="946.5" y1="796.5391" y2="796.5391"/><text fill="#000000" font-family="sans-serif" font-size="13" font-weight="bold" lengthAdjust="spacing" textLength="18" x="874.5" y="784.1416">17</text><text fill="#000000" font-family="sans-serif" font-size="13" lengthAdjust="spacing" textLength="39" x="896.5" y="776.4863">iRODS</text><text fill="#000000" font-family="sans-serif" font-size="13" lengthAdjust="spacing" textLength="33" x="896.5" y="791.7969">C API</text><polygon fill="#181818" points="878.5,821.8496,868.5,825.8496,878.5,829.8496,874.5,825.8496" style="stroke:#181818;stroke-width:1.0;"/><line style="stroke:#181818;stroke-width:1.0;stroke-dasharray:2.0,2.0;" x1="872.5" x2="951.5" y1="825.8496" y2="825.8496"/><text fill="#000000" font-family="sans-serif" font-size="13" font-weight="bold" lengthAdjust="spacing" textLength="18" x="884.5" y="821.1074">18</text><text fill="#000000" font-family="sans-serif" font-size="13" lengthAdjust="spacing" textLength="4" x="906.5" y="821.1074"> </text><polygon fill="#181818" points="770,851.1602,760,855.1602,770,859.1602,766,855.1602" style="stroke:#181818;stroke-width:1.0;"/><line style="stroke:#181818;stroke-width:1.0;stroke-dasharray:2.0,2.0;" x1="764" x2="866.5" y1="855.1602" y2="855.1602"/><text fill="#000000" font-family="sans-serif" font-size="13" font-weight="bold" lengthAdjust="spacing" textLength="18" x="776" y="850.418">19</text><text fill="#000000" font-family="sans-serif" font-size="13" lengthAdjust="spacing" textLength="4" x="798" y="850.418"> </text><polygon fill="#181818" points="618,880.4707,608,884.4707,618,888.4707,614,884.4707" style="stroke:#181818;stroke-width:1.0;"/><line style="stroke:#181818;stroke-width:1.0;stroke-dasharray:2.0,2.0;" x1="612" x2="758" y1="884.4707" y2="884.4707"/><text fill="#000000" font-family="sans-serif" font-size="13" font-weight="bold" lengthAdjust="spacing" textLength="18" x="624" y="879.7285">20</text><text fill="#000000" font-family="sans-serif" font-size="13" lengthAdjust="spacing" textLength="4" x="646" y="879.7285"> </text><path d="M341,906.4707 L521,906.4707 L521,913.7813 L511,923.7813 L341,923.7813 L341,906.4707 " fill="#EEEEEE" style="stroke:#000000;stroke-width:1.5;"/><rect fill="none" height="517.2109" style="stroke:#000000;stroke-width:1.5;" width="654.5" x="341" y="906.4707"/><text fill="#000000" font-family="sans-serif" font-size="13" font-weight="bold" lengthAdjust="spacing" textLength="135" x="356" y="920.0391">Update permissions</text><polygon fill="#181818" points="595,941.0918,605,945.0918,595,949.0918,599,945.0918" style="stroke:#181818;stroke-width:1.0;"/><line style="stroke:#181818;stroke-width:1.0;" x1="414" x2="601" y1="945.0918" y2="945.0918"/><text fill="#000000" font-family="sans-serif" font-size="13" font-weight="bold" lengthAdjust="spacing" textLength="18" x="421" y="940.3496">21</text><text fill="#000000" font-family="sans-serif" font-size="13" lengthAdjust="spacing" textLength="4" x="443" y="940.3496"> </text><polygon fill="#181818" points="747,985.7129,757,989.7129,747,993.7129,751,989.7129" style="stroke:#181818;stroke-width:1.0;"/><line style="stroke:#181818;stroke-width:1.0;" x1="607" x2="753" y1="989.7129" y2="989.7129"/><text fill="#000000" font-family="sans-serif" font-size="13" font-weight="bold" lengthAdjust="spacing" textLength="18" x="614" y="977.3154">22</text><text fill="#000000" font-family="sans-serif" font-size="13" lengthAdjust="spacing" textLength="30" x="636" y="969.6602">Read</text><text fill="#000000" font-family="sans-serif" font-size="13" lengthAdjust="spacing" textLength="58" x="636" y="984.9707">metadata</text><polygon fill="#181818" points="855.5,1015.0234,865.5,1019.0234,855.5,1023.0234,859.5,1019.0234" style="stroke:#181818;stroke-width:1.0;"/><line style="stroke:#181818;stroke-width:1.0;" x1="759" x2="861.5" y1="1019.0234" y2="1019.0234"/><text fill="#000000" font-family="sans-serif" font-size="13" font-weight="bold" lengthAdjust="spacing" textLength="18" x="766" y="1014.2813">23</text><text fill="#000000" font-family="sans-serif" font-size="13" lengthAdjust="spacing" textLength="4" x="788" y="1014.2813"> </text><polygon fill="#181818" points="940.5,1059.6445,950.5,1063.6445,940.5,1067.6445,944.5,1063.6445" style="stroke:#181818;stroke-width:1.0;"/><line style="stroke:#181818;stroke-width:1.0;" x1="867.5" x2="946.5" y1="1063.6445" y2="1063.6445"/><text fill="#000000" font-family="sans-serif" font-size="13" font-weight="bold" lengthAdjust="spacing" textLength="18" x="874.5" y="1051.2471">24</text><text fill="#000000" font-family="sans-serif" font-size="13" lengthAdjust="spacing" textLength="39" x="896.5" y="1043.5918">iRODS</text><text fill="#000000" font-family="sans-serif" font-size="13" lengthAdjust="spacing" textLength="33" x="896.5" y="1058.9023">C API</text><polygon fill="#181818" points="878.5,1088.9551,868.5,1092.9551,878.5,1096.9551,874.5,1092.9551" style="stroke:#181818;stroke-width:1.0;"/><line style="stroke:#181818;stroke-width:1.0;stroke-dasharray:2.0,2.0;" x1="872.5" x2="951.5" y1="1092.9551" y2="1092.9551"/><text fill="#000000" font-family="sans-serif" font-size="13" font-weight="bold" lengthAdjust="spacing" textLength="18" x="884.5" y="1088.2129">25</text><text fill="#000000" font-family="sans-serif" font-size="13" lengthAdjust="spacing" textLength="4" x="906.5" y="1088.2129"> </text><polygon fill="#181818" points="770,1118.2656,760,1122.2656,770,1126.2656,766,1122.2656" style="stroke:#181818;stroke-width:1.0;"/><line style="stroke:#181818;stroke-width:1.0;stroke-dasharray:2.0,2.0;" x1="764" x2="866.5" y1="1122.2656" y2="1122.2656"/><text fill="#000000" font-family="sans-serif" font-size="13" font-weight="bold" lengthAdjust="spacing" textLength="18" x="776" y="1117.5234">26</text><text fill="#000000" font-family="sans-serif" font-size="13" lengthAdjust="spacing" textLength="4" x="798" y="1117.5234"> </text><polygon fill="#181818" points="618,1147.5762,608,1151.5762,618,1155.5762,614,1151.5762" style="stroke:#181818;stroke-width:1.0;"/><line style="stroke:#181818;stroke-width:1.0;stroke-dasharray:2.0,2.0;" x1="612" x2="758" y1="1151.5762" y2="1151.5762"/><text fill="#000000" font-family="sans-serif" font-size="13" font-weight="bold" lengthAdjust="spacing" textLength="18" x="624" y="1146.834">27</text><text fill="#000000" font-family="sans-serif" font-size="13" lengthAdjust="spacing" textLength="4" x="646" y="1146.834"> </text><line style="stroke:#181818;stroke-width:1.0;stroke-dasharray:2.0,2.0;" x1="607" x2="649" y1="1196.1973" y2="1196.1973"/><line style="stroke:#181818;stroke-width:1.0;stroke-dasharray:2.0,2.0;" x1="649" x2="649" y1="1196.1973" y2="1209.1973"/><line style="stroke:#181818;stroke-width:1.0;stroke-dasharray:2.0,2.0;" x1="608" x2="649" y1="1209.1973" y2="1209.1973"/><polygon fill="#181818" points="618,1205.1973,608,1209.1973,618,1213.1973,614,1209.1973" style="stroke:#181818;stroke-width:1.0;"/><text fill="#000000" font-family="sans-serif" font-size="13" font-weight="bold" lengthAdjust="spacing" textLength="18" x="614" y="1183.7998">28</text><text fill="#000000" font-family="sans-serif" font-size="13" lengthAdjust="spacing" textLength="31" x="636" y="1176.1445">Build</text><text fill="#000000" font-family="sans-serif" font-size="13" lengthAdjust="spacing" textLength="77" x="636" y="1191.4551">permissions</text><polygon fill="#181818" points="747,1249.8184,757,1253.8184,747,1257.8184,751,1253.8184" style="stroke:#181818;stroke-width:1.0;"/><line style="stroke:#181818;stroke-width:1.0;" x1="607" x2="753" y1="1253.8184" y2="1253.8184"/><text fill="#000000" font-family="sans-serif" font-size="13" font-weight="bold" lengthAdjust="spacing" textLength="18" x="614" y="1241.4209">29</text><text fill="#000000" font-family="sans-serif" font-size="13" lengthAdjust="spacing" textLength="106" x="636" y="1233.7656">Compare/update</text><text fill="#000000" font-family="sans-serif" font-size="13" lengthAdjust="spacing" textLength="77" x="636" y="1249.0762">permissions</text><polygon fill="#181818" points="855.5,1279.1289,865.5,1283.1289,855.5,1287.1289,859.5,1283.1289" style="stroke:#181818;stroke-width:1.0;"/><line style="stroke:#181818;stroke-width:1.0;" x1="759" x2="861.5" y1="1283.1289" y2="1283.1289"/><text fill="#000000" font-family="sans-serif" font-size="13" font-weight="bold" lengthAdjust="spacing" textLength="18" x="766" y="1278.3867">30</text><text fill="#000000" font-family="sans-serif" font-size="13" lengthAdjust="spacing" textLength="4" x="788" y="1278.3867"> </text><polygon fill="#181818" points="940.5,1323.75,950.5,1327.75,940.5,1331.75,944.5,1327.75" style="stroke:#181818;stroke-width:1.0;"/><line style="stroke:#181818;stroke-width:1.0;" x1="867.5" x2="946.5" y1="1327.75" y2="1327.75"/><text fill="#000000" font-family="sans-serif" font-size="13" font-weight="bold" lengthAdjust="spacing" textLength="18" x="874.5" y="1315.3525">31</text><text fill="#000000" font-family="sans-serif" font-size="13" lengthAdjust="spacing" textLength="39" x="896.5" y="1307.6973">iRODS</text><text fill="#000000" font-family="sans-serif" font-size="13" lengthAdjust="spacing" textLength="33" x="896.5" y="1323.0078">C API</text><polygon fill="#181818" points="878.5,1353.0605,868.5,1357.0605,878.5,1361.0605,874.5,1357.0605" style="stroke:#181818;stroke-width:1.0;"/><line style="stroke:#181818;stroke-width:1.0;stroke-dasharray:2.0,2.0;" x1="872.5" x2="951.5" y1="1357.0605" y2="1357.0605"/><text fill="#000000" font-family="sans-serif" font-size="13" font-weight="bold" lengthAdjust="spacing" textLength="18" x="884.5" y="1352.3184">32</text><text fill="#000000" font-family="sans-serif" font-size="13" lengthAdjust="spacing" textLength="4" x="906.5" y="1352.3184"> </text><polygon fill="#181818" points="770,1382.3711,760,1386.3711,770,1390.3711,766,1386.3711" style="stroke:#181818;stroke-width:1.0;"/><line style="stroke:#181818;stroke-width:1.0;stroke-dasharray:2.0,2.0;" x1="764" x2="866.5" y1="1386.3711" y2="1386.3711"/><text fill="#000000" font-family="sans-serif" font-size="13" font-weight="bold" lengthAdjust="spacing" textLength="18" x="776" y="1381.6289">33</text><text fill="#000000" font-family="sans-serif" font-size="13" lengthAdjust="spacing" textLength="4" x="798" y="1381.6289"> </text><polygon fill="#181818" points="618,1411.6816,608,1415.6816,618,1419.6816,614,1415.6816" style="stroke:#181818;stroke-width:1.0;"/><line style="stroke:#181818;stroke-width:1.0;stroke-dasharray:2.0,2.0;" x1="612" x2="758" y1="1415.6816" y2="1415.6816"/><text fill="#000000" font-family="sans-serif" font-size="13" font-weight="bold" lengthAdjust="spacing" textLength="18" x="624" y="1410.9395">34</text><text fill="#000000" font-family="sans-serif" font-size="13" lengthAdjust="spacing" textLength="4" x="646" y="1410.9395"> </text><!--SRC=[pLJBRjim4BppAnRE8IVNTnyA92bQ1B1RDqRHYm234ZSI0V5HFcBuxqkJaKWvGfFsqbm4FdPsPsTMlEwSqtQzMkcUIkT5_w5HOcNnbqVPu99nsXeg2A7UAUb5ZOOmwcXDBS9YSx_TBu1QwBcmf57I6TN3Ohk1dzHWfxp5IlxG0O0cnXsxWqzRKgJPRYev0cASw8yTgPMNZ9hJHK0bRtRtOzI1QavoQVxmxTCU13fwJbz9NnJdHZ6Rw-VqNtTVeFQMIxGsPvUwFGodiKe6xD3qe0piJgvJ4cBH3DJwa4f5QXbLqo1XZ8WhegbnlE4wwFvCFDCCWZUEFmMciKkuwddRkTOWodmJ8-6ASH4yEXMGGkQyXEN7vDFqA4hDS0vBMgEyXcGWJALzlllC9OEcex951i7tu-0I66oK2OrCsOwv9xk1HrHiM0o7i8Rzzp00OIBDATx2iep7m22IkU1B7n-nSO5M8Xv9lwXwQN8e5bkQ0x-83VY9r-NcV9biZj_pDjcr7iRb3iB094QneKdqdrFF42zbw9NIinrC1RB1eJIQewclwaDcL9YNyTRpdkNChweN87TAX7y2Lwb-9KVmUn5s8fz68xYrN4dx1jtUqFu3KbOq_N-x_ZkVArcgyIzUb_XtOdTOaV9bd3vWlm40]--></g></svg>